<?xml version="1.0" encoding="utf-8"?>
<!-- Generator: Adobe Illustrator 13.0.0, SVG Export Plug-In . SVG Version: 6.00 Build 14948)  -->
<!DOCTYPE svg PUBLIC "-//W3C//DTD SVG 1.1//EN" "http://www.w3.org/Graphics/SVG/1.1/DTD/svg11.dtd">
<svg version="1.1" id="LogoD_x5F_6" xmlns="http://www.w3.org/2000/svg" xmlns:xlink="http://www.w3.org/1999/xlink" x="0px"
	 y="0px" width="285.188px" height="71.566px" viewBox="0 0 285.188 71.566" enable-background="new 0 0 285.188 71.566"
	 xml:space="preserve">
<path d="M53.691,7.463V6.22l-5.389,2.901l-5.39-2.901v1.213l0,0v0.001c0,0,1.243,0.858,1.243,2.518c0,1.658-1.243,2.518-1.243,2.518
	v1.215h10.778v-1.245c0,0-1.242-0.829-1.242-2.487C52.449,8.292,53.691,7.463,53.691,7.463z M53.691,17.413V16.17H42.913v1.213l0,0
	l0,0c0,0,1.243,0.86,1.243,2.519c0,1.659-1.243,2.519-1.243,2.519v1.215h10.778V22.39c0,0-1.242-0.829-1.242-2.488
	C52.449,18.243,53.691,17.413,53.691,17.413z M4.352,16.584c5.805,0,12.024-5.854,21.976-7.047
	c5.819-0.699,9.973,1.559,12.024,2.072c1.658,0.414,2.902,0,2.902-1.658c0-1.793-2.336-2.412-3.317-2.902
	C37.107,6.633,31.67,4.284,24.668,5.39c-7.877,1.243-16.17,6.634-20.316,7.049C4.352,14.512,4.352,14.926,4.352,16.584z
	 M92.253,12.438c-4.146-0.415-12.438-5.806-20.317-7.049c-7.001-1.105-12.439,1.243-13.268,1.659
	c-0.98,0.49-3.318,1.109-3.318,2.902c0,1.658,1.245,2.072,2.904,1.658c2.051-0.514,6.205-2.771,12.023-2.072
	c9.95,1.193,16.17,7.047,21.976,7.047C92.253,14.926,92.253,14.512,92.253,12.438z M4.352,26.535c5.805,0,12.024-5.854,21.976-7.048
	c5.819-0.698,9.973,1.56,12.024,2.073c1.658,0.414,2.902,0,2.902-1.659c0-1.793-2.336-2.411-3.317-2.901
	c-0.829-0.416-6.267-2.765-13.269-1.659c-7.877,1.243-16.17,6.634-20.316,7.049C4.352,24.463,4.352,24.877,4.352,26.535z
	 M92.253,22.39c-4.146-0.415-12.438-5.806-20.317-7.049C64.935,14.235,59.496,16.584,58.668,17c-0.98,0.49-3.318,1.108-3.318,2.901
	c0,1.659,1.245,2.073,2.904,1.659c2.051-0.514,6.205-2.771,12.023-2.073c9.95,1.194,16.17,7.048,21.976,7.048
	C92.253,24.877,92.253,24.463,92.253,22.39z M53.691,27.364v-1.243H42.913v1.213l0,0l0,0c0,0,1.243,0.859,1.243,2.519
	c0,1.658-1.243,2.519-1.243,2.519v1.214h10.778v-1.244c0,0-1.242-0.83-1.242-2.488C52.449,28.193,53.691,27.364,53.691,27.364z
	 M53.691,37.315V36.07H42.913v1.215l0,0l0,0c0,0,1.243,0.859,1.243,2.518c0,1.659-1.243,2.519-1.243,2.519v1.215h10.778v-1.245
	c0,0-1.242-0.829-1.242-2.488C52.449,38.145,53.691,37.315,53.691,37.315z M4.352,36.486c5.805,0,12.024-5.854,21.976-7.048
	c5.819-0.698,9.973,1.56,12.024,2.072c1.658,0.415,2.902,0,2.902-1.658c0-1.793-2.336-2.411-3.317-2.901
	c-0.829-0.416-6.267-2.766-13.269-1.659c-7.877,1.243-16.17,6.634-20.316,7.049C4.352,34.414,4.352,34.828,4.352,36.486z
	 M92.253,32.341c-4.146-0.415-12.438-5.806-20.317-7.049c-7.001-1.106-12.439,1.243-13.268,1.659
	c-0.98,0.49-3.318,1.108-3.318,2.901c0,1.658,1.245,2.073,2.904,1.658c2.051-0.513,6.205-2.771,12.023-2.072
	c9.95,1.194,16.17,7.048,21.976,7.048C92.253,34.828,92.253,34.414,92.253,32.341z M4.352,46.438c5.805,0,12.024-5.854,21.976-7.048
	c5.819-0.698,9.973,1.56,12.024,2.072c1.658,0.415,2.902,0,2.902-1.659c0-1.793-2.336-2.41-3.317-2.9
	c-0.829-0.416-6.267-2.766-13.269-1.66c-7.877,1.244-16.17,6.635-20.316,7.049C4.352,44.364,4.352,44.779,4.352,46.438z
	 M92.253,42.291c-4.146-0.414-12.438-5.805-20.317-7.049c-7.001-1.105-12.439,1.244-13.268,1.66c-0.98,0.49-3.318,1.107-3.318,2.9
	c0,1.659,1.245,2.074,2.904,1.659c2.051-0.513,6.205-2.771,12.023-2.072c9.95,1.194,16.17,7.048,21.976,7.048
	C92.253,44.779,92.253,44.364,92.253,42.291z M53.691,47.266v-1.244H42.913v1.215l0,0l0,0c0,0,1.243,0.859,1.243,2.518
	c0,1.659-1.243,2.519-1.243,2.519v1.215h10.778v-1.245c0,0-1.242-0.829-1.242-2.488C52.449,48.096,53.691,47.266,53.691,47.266z
	 M53.691,57.217v-1.244H42.913v1.215l0,0l0,0c0,0,1.243,0.859,1.243,2.518s-1.243,2.519-1.243,2.519v1.214h10.778v-1.244
	c0,0-1.242-0.83-1.242-2.488S53.691,57.217,53.691,57.217z M4.352,56.389c5.805,0,12.024-5.854,21.976-7.049
	c5.819-0.698,9.973,1.56,12.024,2.073c1.658,0.413,2.902,0,2.902-1.659c0-1.793-2.336-2.412-3.317-2.9
	c-0.829-0.416-6.267-2.766-13.269-1.66c-7.877,1.244-16.17,6.633-20.316,7.049C4.352,54.314,4.352,54.73,4.352,56.389z
	 M92.253,52.242c-4.146-0.416-12.438-5.805-20.317-7.049c-7.001-1.105-12.439,1.244-13.268,1.66c-0.98,0.488-3.318,1.107-3.318,2.9
	c0,1.659,1.245,2.072,2.904,1.659c2.051-0.514,6.205-2.771,12.023-2.073c9.95,1.195,16.17,7.049,21.976,7.049
	C92.253,54.73,92.253,54.314,92.253,52.242z M27.57,60.949c-8.291,0-11.961,2.902-18.657,4.146c-6.206,1.154-8.81,0.416-8.81,0.416
	V7.878H0c2.59,0,6.562-1.306,10.156-2.903C17.619,1.658,22.492,0,31.199,0c9.121,0,17,5.648,17,5.648S56.077,0,65.198,0
	c8.706,0,13.786,1.658,21.249,4.975c3.594,1.598,7.359,2.903,9.951,2.903h0.104v57.633c0,0-2.604,0.738-8.811-0.416
	c-6.696-1.243-10.365-4.146-18.657-4.146c-8.294,0-12.065,2.488-12.065,2.488c1.367,1.243-0.374,2.902-2.032,2.902
	c-1.659,0-6.634,0-6.634,0s-4.561,0-6.635,0c-1.658,0-3.399-1.659-2.031-2.902C39.637,63.438,35.864,60.949,27.57,60.949z"/>
<path d="M109.476,24.285V13.186h7.995c4.593-0.042,5.23,1.233,5.23,5.741c0,4.465-0.851,5.273-5.23,5.358H109.476z M103.352,39.85
	h6.124V29.516h7.995c8.335,0,11.354-1.574,11.354-10.589c0-8.93-2.807-10.972-11.354-10.972h-14.119V39.85z"/>
<path d="M137.839,39.85h-5.358V17.524h5.358V39.85z M137.839,12.506h-5.358v-4.55h5.358V12.506z"/>
<path d="M154.382,28.113l7.229,11.737h-6.293l-4.508-8.165l-4.466,8.165h-6.378l7.357-11.737l-6.506-10.589h6.124l3.87,7.144
	l3.869-7.144h6.209L154.382,28.113z"/>
<path d="M168.585,26.284c0-3.955,0.298-4.933,4.933-4.933c4.38,0,5.061,0.34,5.061,4.933H168.585z M178.578,32.748
	c0,3.317-2.084,3.274-5.061,3.274c-4.806,0-4.933-1.531-4.933-6.336h15.352c0-9.738-1.233-12.417-10.419-12.417
	c-9.016,0-10.291,3.487-10.291,11.482c0,8.633,1.743,11.354,10.291,11.354c6.379,0,10.419-0.34,10.419-7.357H178.578z"/>
<path d="M193.717,39.85h-5.358V7.956h5.358V39.85z"/>
<path d="M219.699,39.85h-5.485l-10.121-26.749h-0.128l0.511,26.749h-6.124V7.956h9.823l8.676,23.687h0.17l8.505-23.687h10.036V39.85
	h-6.124l0.511-26.876h-0.213L219.699,39.85z"/>
<path d="M245.512,26.284c0-3.955,0.298-4.933,4.933-4.933c4.38,0,5.061,0.34,5.061,4.933H245.512z M255.505,32.748
	c0,3.317-2.084,3.274-5.061,3.274c-4.806,0-4.933-1.531-4.933-6.336h15.352c0-9.738-1.233-12.417-10.419-12.417
	c-9.016,0-10.291,3.487-10.291,11.482c0,8.633,1.743,11.354,10.291,11.354c6.379,0,10.419-0.34,10.419-7.357H255.505z"/>
<path d="M274.471,21.351c4.636,0,5.273,1.914,5.273,6.676c0,5.316,0.213,7.995-5.273,7.995c-4.891,0-4.763-2.935-4.763-7.995
	C269.708,22.414,270.771,21.351,274.471,21.351z M279.829,39.85h5.358V7.956h-5.358V20.5h-0.213
	c-1.148-2.722-3.997-3.232-6.719-3.232c-7.654,0-8.548,4.21-8.548,10.759c0,6.847,0.255,12.078,8.548,12.078
	c3.146,0,5.613-0.681,6.974-3.615h0.171L279.829,39.85z"/>
<path d="M108.612,55.394v-5.67h3.699c2.106,0,2.43,0.648,2.43,2.727c0,2.619-0.297,2.862-2.43,2.943H108.612z M108.612,65.275
	v-5.184h4.779c5.643,0,6.912-1.944,6.912-7.641c0-5.292-1.89-7.425-6.912-7.425h-10.179v20.25H108.612z"/>
<path d="M136.288,65.275l0.162-2.727h-0.216c-0.648,2.187-2.268,2.889-4.239,2.889c-2.808,0-4.806-1.188-4.806-4.644v-9.693h4.644
	v8.451c0,1.296,0.135,2.322,1.701,2.322c1.242,0,2.619-0.648,2.619-2.052v-8.721h4.644v14.175H136.288z"/>
<path d="M156.078,61.874c-2.457,0-2.565-0.945-2.565-3.699c0-3.213,0.648-3.672,2.565-3.672c2.16,0,2.322,1.296,2.322,3.672
	C158.4,61.171,158.049,61.874,156.078,61.874z M148.869,45.025v20.25h4.644l-0.107-2.457h0.216c0.54,2.133,2.025,2.619,4.05,2.619
	c3.43,0,5.373-1.458,5.373-5.211v-3.24c0-4.32-1.484-6.048-5.373-6.048c-1.701,0-3.186,0.351-3.941,2.187h-0.217v-8.1H148.869z"/>
<path d="M175.14,65.275h-4.644v-20.25h4.644V65.275z"/>
<path d="M187.479,65.275h-4.644V51.101h4.644V65.275z M187.479,48.589h-4.644v-3.564h4.644V48.589z"/>
<path d="M203.273,55.124c-0.162-1.188-1.161-1.188-1.891-1.188c-2.43,0-2.43,0.297-2.43,1.134c0,0.702,0.054,1.188,2.43,1.242
	c4.807,0.108,6.939,0.378,6.939,4.347c0,4.158-3.213,4.779-6.939,4.779c-3.672,0-6.938,0.081-6.938-4.59h4.644
	c0,1.593,1.161,1.593,2.295,1.593c2.106,0,2.431-0.135,2.431-1.242c0-1.404-0.811-1.404-2.431-1.404
	c-5.886,0-6.938-1.323-6.938-4.212c0-4.563,2.997-4.644,6.938-4.644c2.593,0,6.265,0.027,6.265,3.51v0.675H203.273z"/>
<path d="M220.337,53.747h0.189c0.675-2.241,2.052-2.808,4.238-2.808c3.132,0,4.563,1.485,4.563,4.536v9.801h-4.645v-8.721
	c-0.026-1.377-0.404-2.052-1.917-2.052c-2.079,0-2.43,1.242-2.43,2.97v7.803h-4.644v-20.25h4.644V53.747z"/>
<path d="M241.64,65.275h-4.644V51.101h4.644V65.275z M241.64,48.589h-4.644v-3.564h4.644V48.589z"/>
<path d="M253.924,51.101v2.646h0.189c0.675-2.241,2.052-2.808,4.239-2.808c3.132,0,4.562,1.485,4.562,4.536v9.801h-4.644v-8.721
	c-0.027-1.377-0.405-2.052-1.917-2.052c-2.079,0-2.431,1.242-2.431,2.97v7.803h-4.644V51.101H253.924z"/>
<path d="M277.387,61.711c-1.998,0-2.376-0.594-2.376-3.51c0-3.267,0.216-3.699,2.376-3.699c1.944,0,2.457,0.486,2.457,3.699
	C279.844,60.631,279.655,61.711,277.387,61.711z M270.934,66.544c0.162,4.482,1.62,5.022,6.643,5.022
	c5.454,0,6.912-1.62,6.912-6.912V51.101h-4.645l0.162,2.511h-0.162c-0.566-2.187-2.024-2.673-4.022-2.673
	c-4.888,0-5.454,2.673-5.454,7.263c0,4.023,0.432,7.074,5.454,7.074c1.781,0,3.267-0.567,3.86-2.322h0.162v2.943
	c0,1.971-0.432,2.295-2.43,2.295c-0.54,0-1.053-0.027-1.431-0.216c-0.405-0.216-0.648-0.648-0.648-1.431H270.934z"/>
</svg>
